<svg xmlns="http://www.w3.org/2000/svg" aria-hidden="true" style="position:absolute;width:0;height:0;overflow:hidden"><defs><symbol id="icon-up" viewBox="0 0 32 32"><path d="M15.28 9.28c.08-.107.213-.16.32-.213.133-.053.267-.08.4-.08.107 0 .24.027.373.08.107.053.24.107.32.213l12 12c.187.187.293.453.293.72 0 .24-.107.507-.293.693s-.453.293-.693.293c-.267 0-.533-.107-.72-.293L16 11.413 4.693 22.693a1.014 1.014 0 0 1-.693.293c-.267 0-.533-.107-.72-.293s-.293-.453-.293-.693c0-.267.107-.533.293-.72l12-12z"/></symbol><symbol id="icon-dash" viewBox="0 0 32 32"><path d="M4 16c0-.267.08-.533.267-.72.213-.187.453-.293.72-.293h22c.267 0 .507.107.72.293.187.187.293.453.293.72 0 .24-.107.507-.293.693a1.076 1.076 0 0 1-.72.293h-22c-.267 0-.507-.107-.72-.293A.986.986 0 0 1 4 16z"/></symbol><symbol id="icon-down" viewBox="0 0 32 32"><path d="M3.28 9.28c.08-.107.213-.16.32-.213.133-.053.267-.08.4-.08.107 0 .24.027.373.08.107.053.24.107.32.213L16 20.56 27.28 9.28c.08-.107.213-.16.32-.213.133-.053.267-.08.4-.08.107 0 .24.027.373.08.107.053.24.107.32.213.107.08.16.213.213.32.053.133.08.267.08.4 0 .107-.027.24-.08.373-.053.107-.107.24-.213.32l-12 12c-.08.107-.213.16-.32.213-.133.053-.267.08-.373.08-.133 0-.267-.027-.4-.08-.107-.053-.24-.107-.32-.213l-12-12c-.107-.08-.16-.213-.213-.32a1.054 1.054 0 0 1-.08-.373c0-.133.027-.267.08-.4.053-.107.107-.24.213-.32z"/></symbol><symbol id="icon-arrow-clockwise" viewBox="0 0 32 32"><path d="M16 6c-2.176 0-4.272.688-6 1.984s-2.992 3.12-3.6 5.2a9.998 9.998 0 0 0 .224 6.304 10.123 10.123 0 0 0 3.968 4.928c1.824 1.168 3.968 1.712 6.128 1.552s4.208-1.008 5.84-2.432a10.017 10.017 0 0 0 3.216-5.44 10.071 10.071 0 0 0-.688-6.272c-.096-.24-.112-.512-.016-.752s.288-.432.512-.544c.24-.112.512-.112.752-.032s.448.256.56.496a11.969 11.969 0 0 1 .832 7.536 12.08 12.08 0 0 1-3.856 6.528 12.095 12.095 0 0 1-7.008 2.912 12.107 12.107 0 0 1-7.344-1.872c-2.192-1.408-3.856-3.472-4.768-5.904s-1.008-5.088-.272-7.568c.72-2.496 2.24-4.688 4.32-6.24S13.392 4 16 4v2z"/><path d="M16 8.928V1.056c0-.096.016-.192.064-.272a.534.534 0 0 1 .208-.176c.096-.048.192-.048.288-.048a.526.526 0 0 1 .256.112l4.72 3.936a.5.5 0 0 1 0 .768l-4.72 3.936a.526.526 0 0 1-.256.112c-.096 0-.192 0-.288-.048a.534.534 0 0 1-.208-.176.526.526 0 0 1-.064-.272z"/></symbol><symbol id="icon-bell" viewBox="0 0 32 32"><path d="M15.6 32c1.056 0 2.064-.432 2.816-1.184S19.6 29.056 19.6 28h-8c0 1.056.416 2.064 1.168 2.816S14.528 32 15.6 32zm0-28.176-1.6.32c-1.808.384-3.44 1.36-4.608 2.784S7.6 10.144 7.6 12c0 1.248-.272 4.384-.928 7.472-.32 1.536-.752 3.136-1.328 4.528H25.84c-.576-1.392-1.008-2.992-1.328-4.528-.656-3.088-.912-6.224-.912-7.472a8.12 8.12 0 0 0-1.808-5.072 8.032 8.032 0 0 0-4.608-2.768L15.6 3.824zM28.032 24c.448.88.96 1.6 1.568 2h-28c.592-.4 1.104-1.12 1.552-2C4.96 20.4 5.6 13.76 5.6 12a9.994 9.994 0 0 1 8-9.808c-.032-.272 0-.56.096-.832.08-.256.224-.496.416-.704s.416-.384.672-.496c.256-.112.528-.16.816-.16.272 0 .544.048.8.16s.48.288.672.496c.192.208.336.448.416.704.096.272.128.56.096.832a9.976 9.976 0 0 1 5.744 3.472A10.042 10.042 0 0 1 25.6 12c0 1.76.624 8.4 2.432 12z"/></symbol><symbol id="icon-boosters" viewBox="0 0 32 32"><path d="m16.634 10.197 6.222 3.938-1.157.843-5.754-3.637-5.692 3.637-1.151-.849 6.154-3.926a1.24 1.24 0 0 1 .689-.203c.246-.006.486.068.689.197z"/><path d="m4.554 13.938 10.628 7.809a1.294 1.294 0 0 0 1.526 0l10.726-7.803c.782-.572.745-1.778-.068-2.289L16.634 4.861a1.285 1.285 0 0 0-1.378.006L4.622 11.661c-.8.511-.843 1.711-.068 2.277zm.788-1.156 10.603-6.775 10.714 6.782c0 .006.006.018.006.031s0 .025-.006.037v.006h-.006l-10.708 7.791-10.603-7.791h-.006v-.006c-.006-.012-.006-.025-.006-.037s.006-.025.006-.031l.006-.006z"/><path d="m5.489 16.437 1.151.849-1.298.831h-.006c0 .012-.006.025-.006.037s0 .025.006.037l.006.006 10.603 7.791 10.714-7.797c.006-.012.006-.025.006-.037s-.006-.025-.006-.037h-.006l-1.323-.837 1.163-.843.874.554c.812.511.849 1.717.068 2.283l-10.726 7.809a1.284 1.284 0 0 1-1.526-.006L4.555 19.274c-.775-.566-.732-1.766.068-2.283l.868-.554z"/></symbol><symbol id="icon-burger" viewBox="0 0 32 32"><path d="M4 25c0-.267.093-.52.28-.72.2-.187.453-.28.72-.28h22c.253 0 .507.093.707.28.187.2.293.453.293.72 0 .253-.107.507-.293.707-.2.187-.453.293-.707.293H5c-.267 0-.52-.107-.72-.293A1.03 1.03 0 0 1 4 25zm0-6c0-.267.093-.52.28-.72.2-.187.453-.28.72-.28h22c.253 0 .507.093.707.28.187.2.293.453.293.72 0 .253-.107.507-.293.707-.2.187-.453.293-.707.293H5c-.267 0-.52-.107-.72-.293A1.03 1.03 0 0 1 4 19zm0-6c0-.267.093-.52.28-.72.2-.187.453-.28.72-.28h22c.253 0 .507.093.707.28.187.2.293.453.293.72 0 .253-.107.507-.293.707-.2.187-.453.293-.707.293H5c-.267 0-.52-.107-.72-.293A1.03 1.03 0 0 1 4 13zm0-6c0-.267.093-.52.28-.72.2-.187.453-.28.72-.28h22c.253 0 .507.093.707.28.187.2.293.453.293.72 0 .253-.107.507-.293.707-.2.187-.453.293-.707.293H5c-.267 0-.52-.107-.72-.293A1.03 1.03 0 0 1 4 7z"/></symbol><symbol id="icon-calendar" viewBox="0 0 32 32"><path d="M6.992 0c.272 0 .512.096.704.288S8 .72 8 .992V2h16V.992c0-.272.096-.512.288-.704S24.72 0 24.992 0c.272 0 .512.096.704.288S26 .72 26 .992V2h2c1.056 0 2.064.416 2.816 1.168S32 4.928 32 6v22c0 1.056-.432 2.064-1.184 2.816S29.056 32 28 32H4c-1.072 0-2.08-.432-2.832-1.184S0 29.056 0 28V6c0-1.072.416-2.08 1.168-2.832S2.928 2 4 2h2V.992c0-.272.096-.512.288-.704S6.72 0 6.992 0zM4 4c-.544 0-1.04.208-1.424.576C2.208 4.96 2 5.456 2 6v2h28V6c0-.544-.224-1.04-.592-1.424A2.026 2.026 0 0 0 28 4H4zm26 6H2v18c0 .528.208 1.024.576 1.408.384.368.88.592 1.424.592h24c.528 0 1.024-.224 1.408-.592.368-.384.592-.88.592-1.408V10z"/><path d="M18 14.992c0-.272.096-.512.288-.704s.432-.288.704-.288H30v4H18.992c-.272 0-.512-.112-.704-.304S18 17.264 18 16.992v-2zm-4 6v2c0 .272-.112.512-.304.704s-.432.304-.704.304H2v-4h10.992c.272 0 .512.096.704.288s.304.432.304.704z"/></symbol><symbol id="icon-carters" viewBox="0 0 32 32"><path d="M15.994 5.815c-1.846 2.978-5.908 7.846-9.372 10.283v3.305c3.323-2.431 6.572-5.785 8.788-9.108l.591-.886.585.886c2.209 3.311 5.502 6.646 8.788 9.095v-3.292c-3.526-2.431-7.538-7.305-9.378-10.283zm0 6.776c-1.846 2.978-5.908 7.846-9.372 10.283v3.305c3.323-2.431 6.572-5.785 8.788-9.108l.591-.886.585.886c2.209 3.311 5.502 6.646 8.788 9.095v-3.292c-3.526-2.431-7.538-7.305-9.378-10.283z"/></symbol><symbol id="icon-close" viewBox="0 0 32 32"><path d="M4.288 5.696c-.096-.096-.176-.192-.224-.32s-.08-.256-.08-.384.032-.256.08-.384.128-.224.224-.32.192-.176.32-.224.256-.08.384-.08.256.032.384.08.224.128.32.224L16 14.576 26.288 4.288c.096-.096.192-.176.32-.224s.256-.08.384-.08.256.032.384.08.224.128.32.224.176.192.224.32.08.256.08.384-.032.256-.08.384-.128.224-.224.32L17.408 16l10.288 10.288c.096.096.176.192.224.32s.08.256.08.384-.032.256-.08.384-.128.224-.224.32-.192.176-.32.224-.256.08-.384.08-.256-.032-.384-.08-.224-.128-.32-.224L16 17.408 5.696 27.696c-.096.096-.192.176-.32.224s-.256.08-.384.08-.256-.032-.384-.08-.224-.128-.32-.224-.176-.192-.224-.32-.08-.256-.08-.384.032-.256.08-.384.128-.224.224-.32L14.576 16 4.288 5.696z"/></symbol><symbol id="icon-coin" viewBox="0 0 32 32"><path d="M10.992 19.008c.144 1.92 1.664 3.408 4.368 3.584V24h1.2v-1.424c2.8-.192 4.432-1.696 4.432-3.872 0-1.968-1.248-2.992-3.488-3.52l-.944-.224v-3.824c1.2.128 1.968.784 2.144 1.696h2.112c-.16-1.84-1.744-3.28-4.256-3.424V8h-1.2v1.424c-2.4.24-4.016 1.68-4.016 3.712 0 1.792 1.2 2.944 3.216 3.408l.8.208v4.064c-1.232-.192-2.048-.864-2.24-1.808h-2.128zm4.352-4.32c-1.184-.272-1.824-.832-1.824-1.68 0-.944.688-1.648 1.84-1.856v3.536h-.016zm1.392 2.384c1.424.336 2.096.864 2.096 1.824 0 1.072-.832 1.824-2.272 1.952v-3.824l.176.048z"/><path d="M16 30c-3.728 0-7.28-1.488-9.904-4.112S2 19.712 2 16A13.984 13.984 0 0 1 16 2c3.712 0 7.264 1.472 9.888 4.096S30 12.272 30 16c0 3.712-1.488 7.264-4.112 9.888S19.712 30 16 30zm0 2c4.24 0 8.304-1.696 11.312-4.688A16.053 16.053 0 0 0 32 16c0-4.256-1.696-8.32-4.688-11.328a16.047 16.047 0 0 0-22.64 0 16.047 16.047 0 0 0 0 22.64A16.062 16.062 0 0 0 16 32z"/><path d="M16 26.992c-2.928 0-5.728-1.152-7.792-3.216S4.992 18.912 4.992 16c0-2.928 1.152-5.728 3.216-7.792S13.072 4.992 16 4.992c2.912 0 5.712 1.152 7.776 3.216s3.216 4.864 3.216 7.792c0 2.912-1.152 5.712-3.216 7.776S18.912 26.992 16 26.992zM16 28c1.568 0 3.136-.32 4.592-.928 1.456-.592 2.768-1.488 3.888-2.592 1.104-1.12 2-2.432 2.592-3.888C27.68 19.136 28 17.568 28 16c0-1.584-.32-3.152-.928-4.608-.592-1.456-1.488-2.768-2.592-3.888-1.12-1.104-2.432-2-3.888-2.592A11.935 11.935 0 0 0 16 4c-3.184 0-6.24 1.264-8.496 3.504A12.066 12.066 0 0 0 4 16c0 3.168 1.264 6.224 3.504 8.48A12.082 12.082 0 0 0 16 28z"/></symbol><symbol id="icon-companies" viewBox="0 0 32 32"><path d="M12.992 2c-.8 0-1.552.304-2.128.864A3.028 3.028 0 0 0 10 4.992V6H2.992c-.8 0-1.552.304-2.128.864A3.028 3.028 0 0 0 0 8.992v16c0 .8.304 1.552.864 2.128.576.56 1.328.88 2.128.88h26c.8 0 1.552-.32 2.128-.88.56-.576.88-1.328.88-2.128v-16c0-.8-.32-1.552-.88-2.128A3.028 3.028 0 0 0 28.992 6H22V4.992c0-.8-.32-1.552-.88-2.128A3.028 3.028 0 0 0 18.992 2h-6zm0 2h6c.272 0 .512.096.704.288s.304.432.304.704V6h-8V4.992c0-.272.096-.512.288-.704S12.72 4 12.992 4zm3.776 13.824L30 14.288v10.704c0 .272-.112.512-.304.704s-.432.304-.704.304h-26c-.272 0-.512-.112-.704-.304S2 25.264 2 24.992V14.288l13.216 3.536c.512.128 1.04.128 1.552 0zM2.992 8h26c.272 0 .512.096.704.288s.304.432.304.704v3.232l-13.744 3.664a.986.986 0 0 1-.528 0L2 12.224V8.992c0-.272.096-.512.288-.704S2.72 8 2.992 8z"/></symbol><symbol id="icon-contact" viewBox="0 0 32 32"><path d="M12 16a6.05 6.05 0 0 0 4.24-1.76A6.05 6.05 0 0 0 18 10c0-1.6-.64-3.12-1.76-4.256a6.044 6.044 0 0 0-8.496 0 6.044 6.044 0 0 0 0 8.496A6.06 6.06 0 0 0 12 16zm4-6c0 1.056-.432 2.064-1.184 2.816S13.056 14 12 14c-1.072 0-2.08-.432-2.832-1.184S8 11.056 8 10c0-1.072.416-2.08 1.168-2.832S10.928 6 12 6c1.056 0 2.064.416 2.816 1.168S16 8.928 16 10zm8 16c0 2-2 2-2 2H2s-2 0-2-2 2-8 12-8 12 6 12 8zm-2-.016c-.016-.496-.32-1.968-1.664-3.328C19.024 21.36 16.576 20 12 20c-4.592 0-7.04 1.36-8.336 2.656C2.304 24.016 2 25.488 2 25.984h20zM26.992 10c.272 0 .512.096.704.288s.304.432.304.704V14h2.992c.272 0 .512.096.704.288s.304.432.304.704c0 .272-.112.512-.304.704s-.432.304-.704.304H28v2.992c0 .272-.112.512-.304.704s-.432.304-.704.304c-.272 0-.512-.112-.704-.304S26 19.264 26 18.992V16h-3.008c-.272 0-.512-.112-.704-.304S22 15.264 22 14.992c0-.272.096-.512.288-.704s.432-.288.704-.288H26v-3.008c0-.272.096-.512.288-.704s.432-.288.704-.288z"/></symbol><symbol id="icon-crystall" viewBox="0 0 32 32"><path stroke-linecap="round" stroke-linejoin="round" stroke-width="0.6154" d="M28.185 12.185 16 27.428 3.809 12.185l4.585-6.092h15.225l4.566 6.092zm-24.376 0h24.375m-16.756 0L16 27.428m4.566-15.243L16 27.428"/><path stroke-linecap="round" stroke-linejoin="round" stroke-width="0.6154" d="m8.394 6.092 3.034 6.092L16 6.092l4.566 6.092 3.052-6.092"/></symbol><symbol id="icon-document" viewBox="0 0 32 32"><path d="M21.696 14.288c.096.096.176.192.224.32s.08.256.08.384-.032.256-.08.384-.128.224-.224.32l-6 6c-.096.096-.192.176-.32.224s-.256.08-.384.08-.256-.032-.384-.08-.224-.128-.32-.224l-3.008-2.992a.914.914 0 0 1-.208-.336.95.95 0 0 1-.08-.368c0-.144.032-.272.08-.384a.914.914 0 0 1 .208-.336c.192-.176.448-.288.72-.288a.95.95 0 0 1 .368.08c.128.048.24.112.336.208l2.288 2.304 5.296-5.296c.096-.096.192-.176.32-.224s.256-.08.384-.08.256.032.384.08.224.128.32.224z"/><path d="M8 2.992H6c-1.072 0-2.08.416-2.832 1.168S2 5.936 2 6.992V28c0 1.056.416 2.064 1.168 2.816S4.928 32 6 32h20c1.056 0 2.064-.432 2.816-1.184S30 29.056 30 28V6.992c0-1.056-.432-2.08-1.184-2.832S27.056 2.992 26 2.992h-2v2h2c.528 0 1.024.208 1.408.592.368.368.592.88.592 1.408V28c0 .528-.224 1.024-.592 1.408-.384.368-.88.592-1.408.592H6c-.544 0-1.04-.224-1.424-.592A2.026 2.026 0 0 1 4 28V6.992a1.998 1.998 0 0 1 2-2h2v-2z"/><path d="M18.992 2c.272 0 .512.096.704.288s.304.432.304.704v2c0 .272-.112.512-.304.704S19.264 6 18.992 6h-6c-.272 0-.512-.112-.704-.304S12 5.264 12 4.992v-2c0-.272.096-.512.288-.704S12.72 2 12.992 2h6zm-6-2c-.8 0-1.552.304-2.128.864A3.028 3.028 0 0 0 10 2.992v2c0 .8.304 1.552.864 2.128.576.56 1.328.88 2.128.88h6c.8 0 1.552-.32 2.128-.88.56-.576.88-1.328.88-2.128v-2c0-.8-.32-1.552-.88-2.128A3.028 3.028 0 0 0 18.992 0h-6z"/></symbol><symbol id="icon-location" viewBox="0 0 32 32"><path d="M16 32s12-11.376 12-20c0-3.184-1.28-6.24-3.52-8.496A12.057 12.057 0 0 0 16 0c-3.184 0-6.24 1.264-8.496 3.504A12.066 12.066 0 0 0 4 12c0 8.624 12 20 12 20zm0-14c-1.6 0-3.12-.64-4.256-1.76a6.044 6.044 0 0 1 0-8.496 6.044 6.044 0 0 1 8.496 0A6.06 6.06 0 0 1 22 12a6.05 6.05 0 0 1-1.76 4.24A6.05 6.05 0 0 1 16 18z"/></symbol><symbol id="icon-logo-sass" viewBox="0 0 32 32"><path d="M31.982 20.498c-.092-.745-.468-1.391-1.126-1.92-.006-.012-.012-.018-.025-.031l-.031-.018-.012-.012-.351-.246-.012-.012-.043-.031c-.012-.006-.031-.012-.049-.018-1.102-.658-2.923-1.114-5.717-.129-.665-1.126-.738-2.018-.295-3.397.08-.24.006-.394-.228-.498-.48-.203-1.132-.098-1.6.025-.215.055-.345.178-.388.363-.289 1.372-1.145 2.634-1.969 3.846l-.049.068c-.511-1.077-.406-1.914-.049-2.96.068-.209.012-.351-.178-.449-.548-.283-1.366-.092-1.692.006-.418.123-.862 1.237-1.354 2.578-.123.338-.234.622-.295.757a17.16 17.16 0 0 0-.455 1.046c-.351.855-.745 1.822-1.311 2.425-.203-.449.117-1.169.431-1.858.369-.818.72-1.594.32-2.092a.764.764 0 0 0-.523-.265.736.736 0 0 0-.382.062c.043-.357.043-.634-.062-.972-.148-.48-.529-.751-1.058-.732-1.2.031-2.215.929-2.862 1.674-.425.498-1.372.88-2.203 1.218-.332.135-.64.258-.905.388-.412-.351-.942-.708-1.495-1.083-1.563-1.046-3.335-2.234-3.397-3.846-.086-2.382 2.628-4.074 4.991-5.28 1.797-.911 3.354-1.52 4.769-1.846 1.988-.468 3.668-.369 4.991.277.726.351 1.065 1.126.849 1.914-.566 2.062-2.898 3.471-4.886 4.111-1.206.382-2.228.542-3.126.486-1.132-.062-2.055-.634-2.449-.874a1.333 1.333 0 0 0-.203-.111l-.018-.006a.205.205 0 0 0-.105.006.177.177 0 0 0-.092.055c-.08.098-.055.252-.025.326.388 1.009 1.182 1.643 2.357 1.889.388.074.782.111 1.175.111 2.763 0 6.289-1.594 7.582-2.905.886-.892 1.526-1.815 1.797-3.397.277-1.662-.849-2.812-1.994-3.342-2.788-1.286-5.951-.782-8.117-.129-2.529.763-5.145 2.154-7.182 3.809C.426 11.522-.484 13.417.236 15.122c.738 1.742 2.542 2.837 4.277 3.889.566.345 1.102.671 1.582 1.003-.142.068-.289.142-.443.215-1.458.708-3.12 1.502-4.037 2.818-.671.96-.794 1.914-.369 2.843.222.492.622.825 1.175.991.289.08.591.123.892.117 1.083 0 2.271-.437 2.917-.843 1.145-.72 1.889-1.68 2.209-2.868.283-1.052.215-2.098-.197-3.034l1.403-.708c-.677 2.252-.16 3.594.412 4.332.209.277.585.443 1.009.449s.812-.154 1.034-.425c.418-.517.726-1.12 1.009-1.723-.018.394 0 .794.135 1.132.123.302.32.505.578.585.271.08.591.012.898-.197 1.385-.948 2.332-3.225 3.095-5.052.105-.265.209-.511.308-.745.191.671.449 1.323.782 1.938.074.135.068.197-.031.302-.148.166-.363.369-.585.578-.671.64-1.514 1.44-1.625 2.142-.043.277.154.535.449.591.905.185 1.994-.08 2.917-.702.837-.56 1.151-1.348.935-2.326-.203-.935.271-2.105 1.415-3.471.185.782.437 1.415.782 1.969l-.012.006c-.831.726-1.975 1.723-1.797 2.935a.845.845 0 0 0 .117.326c.055.098.135.185.234.252s.215.111.338.135a.93.93 0 0 0 .363-.012c1.089-.228 1.914-.689 2.511-1.409s.375-1.514.178-2.135c1.563-.425 2.954-.412 4.252.031.732.252 1.255.665 1.557 1.231.382.714.178 1.372-.578 1.852-.234.148-.345.24-.351.351 0 .031.006.055.012.08.012.025.031.043.049.062.092.074.357.197.972-.191.56-.351.892-.831.972-1.434a2.368 2.368 0 0 0 0-.505zm-24.985 1.57-.006.08c-.092.917-.56 1.711-1.378 2.375-.517.418-1.077.671-1.582.72-.351.037-.603-.012-.757-.142-.111-.098-.172-.24-.185-.437-.105-1.594 2.394-3.175 3.797-3.698.105.357.142.732.111 1.102zm6.4-4.493c-.234 1.317-.905 3.809-1.963 4.775-.055.043-.098.062-.117.055s-.031-.025-.049-.062c-.351-.818-.222-2.203.314-3.292.412-.843.997-1.397 1.655-1.563.031-.006.055-.012.086-.012.018 0 .043.006.062.018a.09.09 0 0 1 .012.037c.006.018.006.031 0 .043zm5.218 4.807c-.197.209-.474.178-.406.105l1.015-1.077c-.086.369-.326.677-.609.972zm4.21-.93a1.028 1.028 0 0 1-.308.086c-.031-.566.523-1.206 1.065-1.631.142.591-.154 1.212-.757 1.545z"/></symbol><symbol id="icon-message" viewBox="0 0 32 32"><path d="M0 8c0-1.072.416-2.08 1.168-2.832S2.928 4 4 4h24c1.056 0 2.064.416 2.816 1.168S32 6.928 32 8v16c0 1.056-.432 2.064-1.184 2.816S29.056 28 28 28H4c-1.072 0-2.08-.432-2.832-1.184S0 25.056 0 24V8zm4-2c-.544 0-1.04.208-1.424.576C2.208 6.96 2 7.456 2 8v.432l14 8.4 14-8.4V8c0-.544-.224-1.04-.592-1.424A2.026 2.026 0 0 0 28 6H4zm26 4.752-9.424 5.664L30 22.208V10.752zm-.08 13.76-11.28-6.944L16 19.152l-2.656-1.584-11.28 6.944c.112.416.368.8.704 1.072C3.12 25.84 3.552 26 4 26h24c.432 0 .864-.16 1.216-.416.336-.272.592-.656.704-1.072zM2 22.208l9.408-5.792L2 10.752v11.456z"/></symbol><symbol id="icon-overview" viewBox="0 0 32 32"><path d="M12 2v6H2V2h10zM2 0C1.456 0 .96.208.576.576.208.96 0 1.456 0 2v6c0 .528.208 1.024.576 1.408C.96 9.776 1.456 10 2 10h10c.528 0 1.024-.224 1.408-.592.368-.384.592-.88.592-1.408V2c0-.544-.224-1.04-.592-1.424A2.026 2.026 0 0 0 12 0H2zm28 24v6H20v-6h10zm-10-2c-.544 0-1.04.208-1.424.576-.368.384-.576.88-.576 1.424v6c0 .528.208 1.024.576 1.408.384.368.88.592 1.424.592h10c.528 0 1.024-.224 1.408-.592.368-.384.592-.88.592-1.408v-6c0-.544-.224-1.04-.592-1.424A2.026 2.026 0 0 0 30 22H20zm-8-6v14H2V16h10zM2 14c-.544 0-1.04.208-1.424.576C.208 14.96 0 15.456 0 16v14c0 .528.208 1.024.576 1.408.384.368.88.592 1.424.592h10c.528 0 1.024-.224 1.408-.592.368-.384.592-.88.592-1.408V16c0-.544-.224-1.04-.592-1.424A2.026 2.026 0 0 0 12 14H2zM30 2v14H20V2h10zM20 0c-.544 0-1.04.208-1.424.576C18.208.96 18 1.456 18 2v14c0 .528.208 1.024.576 1.408.384.368.88.592 1.424.592h10c.528 0 1.024-.224 1.408-.592.368-.384.592-.88.592-1.408V2c0-.544-.224-1.04-.592-1.424A2.026 2.026 0 0 0 30 0H20z"/></symbol><symbol id="icon-plus" viewBox="0 0 32 32"><path d="M16 8c.26 0 .5.1.7.28.18.2.3.44.3.72v6h6c.26 0 .5.1.7.28.18.2.3.44.3.72 0 .26-.12.5-.3.7-.2.18-.44.3-.7.3h-6v6c0 .26-.12.5-.3.7-.2.18-.44.3-.7.3-.28 0-.52-.12-.72-.3-.18-.2-.28-.44-.28-.7v-6H9c-.28 0-.52-.12-.72-.3a1.036 1.036 0 0 1 0-1.42c.2-.18.44-.28.72-.28h6V9c0-.28.1-.52.28-.72.2-.18.44-.28.72-.28z"/></symbol><symbol id="icon-minus" viewBox="0 0 32 32"><path d="M8 16c0-.28.1-.52.28-.72.2-.18.44-.28.72-.28h14c.26 0 .5.1.7.28.18.2.3.44.3.72 0 .26-.12.5-.3.7-.2.18-.44.3-.7.3H9c-.28 0-.52-.12-.72-.3-.18-.2-.28-.44-.28-.7z"/></symbol><symbol id="icon-checkbox" viewBox="0 0 32 32"><path stroke-width="1.6" d="M6.4.8h19.2a5.6 5.6 0 0 1 5.6 5.6v19.2a5.6 5.6 0 0 1-5.6 5.6H6.4a5.6 5.6 0 0 1-5.6-5.6V6.4A5.6 5.6 0 0 1 6.4.8z"/></symbol><symbol id="icon-report" viewBox="0 0 32 32"><path d="M10 20.992c0-.272.096-.512.288-.704s.432-.288.704-.288h4c.272 0 .512.096.704.288s.304.432.304.704c0 .272-.112.512-.304.704s-.432.304-.704.304h-4c-.272 0-.512-.112-.704-.304S10 21.264 10 20.992zm0-4c0-.272.096-.512.288-.704s.432-.288.704-.288h10c.272 0 .512.096.704.288s.304.432.304.704c0 .272-.112.512-.304.704s-.432.304-.704.304h-10c-.272 0-.512-.112-.704-.304S10 17.264 10 16.992zm0-4c0-.272.096-.512.288-.704s.432-.288.704-.288h10c.272 0 .512.096.704.288s.304.432.304.704c0 .272-.112.512-.304.704s-.432.304-.704.304h-10c-.272 0-.512-.112-.704-.304S10 13.264 10 12.992zm0-4c0-.272.096-.512.288-.704S10.72 8 10.992 8h10c.272 0 .512.096.704.288s.304.432.304.704c0 .272-.112.512-.304.704s-.432.304-.704.304h-10c-.272 0-.512-.112-.704-.304S10 9.264 10 8.992z"/><path d="M6 0h20c1.056 0 2.064.416 2.816 1.168S30 2.928 30 4v24c0 1.056-.432 2.064-1.184 2.816S27.056 32 26 32H6c-1.072 0-2.08-.432-2.832-1.184S2 29.056 2 28v-2h2v2c0 .528.208 1.024.576 1.408.384.368.88.592 1.424.592h20c.528 0 1.024-.224 1.408-.592.368-.384.592-.88.592-1.408V4c0-.544-.224-1.04-.592-1.424A2.026 2.026 0 0 0 26 2H6c-.544 0-1.04.208-1.424.576C4.208 2.96 4 3.456 4 4v2H2V4c0-1.072.416-2.08 1.168-2.832S4.928 0 6 0z"/><path d="M2 10V8.992c0-.272.096-.512.288-.704S2.72 8 2.992 8c.272 0 .512.096.704.288S4 8.72 4 8.992V10h.992c.272 0 .512.096.704.288s.304.432.304.704c0 .272-.112.512-.304.704S5.264 12 4.992 12h-4c-.272 0-.512-.112-.704-.304S0 11.264 0 10.992c0-.272.096-.512.288-.704S.72 10 .992 10H2zm0 6v-1.008c0-.272.096-.512.288-.704S2.72 14 2.992 14c.272 0 .512.096.704.288s.304.432.304.704V16h.992c.272 0 .512.096.704.288s.304.432.304.704c0 .272-.112.512-.304.704S5.264 18 4.992 18h-4c-.272 0-.512-.112-.704-.304S0 17.264 0 16.992c0-.272.096-.512.288-.704S.72 16 .992 16H2zm0 6v-1.008c0-.272.096-.512.288-.704S2.72 20 2.992 20c.272 0 .512.096.704.288s.304.432.304.704V22h.992c.272 0 .512.096.704.288s.304.432.304.704c0 .272-.112.512-.304.704S5.264 24 4.992 24h-4c-.272 0-.512-.112-.704-.304S0 23.264 0 22.992c0-.272.096-.512.288-.704S.72 22 .992 22H2z"/></symbol><symbol id="icon-search" viewBox="0 0 32 32"><path d="M23.472 20.688a13.073 13.073 0 0 0 2.432-9.184 13.046 13.046 0 0 0-4.448-8.384A13.038 13.038 0 0 0 12.496 0 13.005 13.005 0 0 0 0 12.512a13.038 13.038 0 0 0 3.12 8.96 13.026 13.026 0 0 0 8.384 4.432 12.974 12.974 0 0 0 9.184-2.432h-.016c.064.08.128.16.208.24l7.696 7.696c.368.368.88.592 1.408.592.544 0 1.04-.224 1.424-.592.368-.368.576-.88.576-1.408 0-.544-.208-1.04-.576-1.424l-7.696-7.696c-.08-.08-.16-.144-.24-.192zM24 12.992c0 1.44-.288 2.88-.848 4.208-.544 1.344-1.36 2.544-2.384 3.568s-2.24 1.84-3.568 2.384a10.862 10.862 0 0 1-8.416 0c-1.344-.544-2.544-1.36-3.568-2.384s-1.84-2.224-2.384-3.568A10.846 10.846 0 0 1 2 12.992C2 10.08 3.152 7.28 5.216 5.216S10.08 2 12.992 2s5.712 1.152 7.776 3.216S24 10.08 24 12.992z"/></symbol><symbol id="icon-setting" viewBox="0 0 32 32"><path d="M16 9.504c-.864 0-1.712.16-2.496.496-.784.32-1.504.8-2.096 1.408A6.205 6.205 0 0 0 10 13.504 6.319 6.319 0 0 0 9.504 16c0 .848.16 1.696.496 2.48.32.784.8 1.504 1.408 2.096a6.205 6.205 0 0 0 2.096 1.408A6.319 6.319 0 0 0 16 22.48c1.712 0 3.36-.672 4.576-1.904A6.481 6.481 0 0 0 22.48 16c0-1.728-.688-3.376-1.904-4.592S17.712 9.504 16 9.504zM11.504 16A4.478 4.478 0 0 1 16 11.504 4.478 4.478 0 0 1 20.48 16c0 1.184-.464 2.32-1.312 3.168S17.184 20.48 16 20.48A4.478 4.478 0 0 1 11.504 16z"/><path d="M19.584 2.672c-1.056-3.568-6.128-3.568-7.184 0l-.192.64c-.064.256-.192.48-.368.672s-.4.352-.64.448c-.24.096-.496.144-.752.128-.256 0-.512-.08-.752-.208l-.576-.32C5.84 2.256 2.256 5.84 4.032 9.12l.32.576c.128.24.208.496.208.752.016.256-.032.512-.128.752s-.256.464-.448.64a1.541 1.541 0 0 1-.672.368l-.64.192c-3.568 1.056-3.568 6.128 0 7.184l.64.192c.256.064.48.192.672.368s.352.4.448.64c.096.24.144.496.128.752 0 .256-.08.512-.208.752l-.32.576c-1.776 3.28 1.808 6.864 5.088 5.088l.576-.32c.24-.128.496-.208.752-.208.256-.016.512.032.752.128s.464.256.64.448.304.416.368.672l.192.64c1.056 3.568 6.128 3.568 7.184 0l.192-.64c.064-.256.192-.48.368-.672s.4-.352.64-.448c.24-.096.496-.144.752-.128.256 0 .512.08.752.208l.576.32c3.28 1.776 6.864-1.808 5.088-5.088l-.32-.576a1.613 1.613 0 0 1-.208-.752c-.016-.256.032-.512.128-.752s.256-.464.448-.64.416-.304.672-.368l.64-.192c3.568-1.056 3.568-6.128 0-7.184l-.64-.192c-.256-.064-.48-.192-.672-.368s-.352-.4-.448-.64a1.736 1.736 0 0 1-.128-.752c0-.256.08-.512.208-.752l.32-.576c1.776-3.28-1.808-6.864-5.088-5.088l-.576.32c-.24.128-.496.208-.752.208-.256.016-.512-.032-.752-.128s-.464-.256-.64-.448a1.541 1.541 0 0 1-.368-.672l-.192-.64zm-5.264.576c.496-1.68 2.848-1.68 3.344 0l.192.64c.16.528.432 1.024.8 1.44.384.416.848.736 1.36.96.512.208 1.072.304 1.632.272s1.104-.176 1.584-.448l.592-.32c1.52-.832 3.2.832 2.368 2.368l-.32.592c-.272.48-.416 1.024-.448 1.584s.064 1.12.272 1.632c.224.512.544.976.96 1.36.416.368.912.64 1.44.8l.64.192c1.68.496 1.68 2.848 0 3.344l-.64.192a3.874 3.874 0 0 0-1.44.8 4.048 4.048 0 0 0-.96 1.36c-.208.512-.304 1.072-.272 1.632s.176 1.104.448 1.584l.32.592c.832 1.52-.848 3.2-2.368 2.368l-.592-.32c-.48-.272-1.024-.416-1.584-.448s-1.12.064-1.632.272a4.048 4.048 0 0 0-1.36.96c-.368.416-.64.912-.8 1.44l-.192.64c-.496 1.68-2.848 1.68-3.344 0l-.192-.64a3.874 3.874 0 0 0-.8-1.44 4.048 4.048 0 0 0-1.36-.96c-.512-.208-1.072-.304-1.632-.272s-1.104.176-1.584.448l-.592.32c-1.52.832-3.2-.848-2.368-2.368l.32-.592c.272-.48.416-1.024.448-1.584s-.064-1.12-.272-1.632a3.895 3.895 0 0 0-.96-1.36 3.874 3.874 0 0 0-1.44-.8l-.64-.192c-1.68-.496-1.68-2.864 0-3.344l.64-.192a3.874 3.874 0 0 0 1.44-.8c.416-.384.736-.848.96-1.36.208-.512.304-1.072.272-1.632s-.176-1.104-.448-1.584l-.32-.592c-.832-1.52.832-3.2 2.368-2.368l.592.32c.48.272 1.024.416 1.584.448s1.12-.064 1.632-.272a4.048 4.048 0 0 0 1.36-.96c.368-.416.64-.912.8-1.44l.192-.64z"/></symbol><symbol id="icon-symphatico" viewBox="0 0 32 32"><path d="M29.748 18.658c0 1.969-.382 3.649-1.108 4.855-.886 1.458-2.252 2.234-3.963 2.234-3.342 0-5.785-4.566-8.375-9.397-2.16-4.031-4.609-8.603-7.052-8.603-2.911 0-5.502 6.105-5.502 10.911 0 1.698.308 3.108.892 4.08.615 1.015 1.489 1.508 2.677 1.508 2.018 0 4.037-3.132 5.748-6.197a.787.787 0 0 1 .449-.314c.185-.043.375-.012.542.08s.289.24.351.418a.77.77 0 0 1-.037.548c-1.871 3.366-4.123 6.966-7.052 6.966-1.711 0-3.077-.775-3.963-2.234-.726-1.206-1.108-2.886-1.108-4.855 0-5.058 2.726-12.412 7.003-12.412 3.342 0 5.785 4.566 8.375 9.397 2.16 4.031 4.609 8.603 7.052 8.603 1.188 0 2.062-.492 2.677-1.508.585-.972.892-2.382.892-4.08 0-4.806-2.591-10.911-5.502-10.911-1.12 0-2.363.972-3.766 2.966a.764.764 0 0 1-.486.308.756.756 0 0 1-.868-.609.75.75 0 0 1 .129-.56c1.089-1.551 2.788-3.606 4.991-3.606 4.277 0 7.003 7.354 7.003 12.412z"/></symbol><symbol id="icon-synergetic" viewBox="0 0 32 32"><path stroke-linecap="round" stroke-linejoin="round" stroke-width="0.6154" d="M11.102 27.169c1.754-1.108 2.948-4.855.683-6.825l-5.274 7.735c-.425.622-.197 1.286 1.132.671l4.862-2.271 8.265-3.846a2.09 2.09 0 0 0 .671-.511c.191-.209.332-.455.425-.72a2.173 2.173 0 0 0-.092-1.649l-.006-.006-4.56-9.852c-.548-1.126.326-2.905 1.926-4.209m1.758-.861c-1.754 1.108-2.948 4.855-.689 6.825l5.28-7.735c.425-.622.197-1.286-1.132-.671l-4.862 2.271-8.265 3.846a2.09 2.09 0 0 0-.671.511 2.086 2.086 0 0 0-.425.72 2.173 2.173 0 0 0 .092 1.649l.006.006 4.56 9.852c.548 1.126-.326 2.905-1.926 4.209"/></symbol></defs></svg>