<svg aria-hidden="true" style="position: absolute; width: 0; height: 0; overflow: hidden;" version="1.1" xmlns="http://www.w3.org/2000/svg" xmlns:xlink="http://www.w3.org/1999/xlink">
<defs>
<symbol id="icon-up" viewBox="0 0 32 32">
<path d="M15.28 9.28c0.080-0.107 0.213-0.16 0.32-0.213 0.133-0.053 0.267-0.080 0.4-0.080 0.107 0 0.24 0.027 0.373 0.080 0.107 0.053 0.24 0.107 0.32 0.213l12 12c0.187 0.187 0.293 0.453 0.293 0.72 0 0.24-0.107 0.507-0.293 0.693s-0.453 0.293-0.693 0.293c-0.267 0-0.533-0.107-0.72-0.293l-11.28-11.28-11.307 11.28c-0.187 0.187-0.453 0.293-0.693 0.293-0.267 0-0.533-0.107-0.72-0.293s-0.293-0.453-0.293-0.693c0-0.267 0.107-0.533 0.293-0.72l12-12z"></path>
</symbol>
<symbol id="icon-dash" viewBox="0 0 32 32">
<path d="M4 16c0-0.267 0.080-0.533 0.267-0.72 0.213-0.187 0.453-0.293 0.72-0.293h22c0.267 0 0.507 0.107 0.72 0.293 0.187 0.187 0.293 0.453 0.293 0.72 0 0.24-0.107 0.507-0.293 0.693-0.213 0.187-0.453 0.293-0.72 0.293h-22c-0.267 0-0.507-0.107-0.72-0.293-0.187-0.187-0.267-0.453-0.267-0.693z"></path>
</symbol>
<symbol id="icon-down" viewBox="0 0 32 32">
<path d="M3.28 9.28c0.080-0.107 0.213-0.16 0.32-0.213 0.133-0.053 0.267-0.080 0.4-0.080 0.107 0 0.24 0.027 0.373 0.080 0.107 0.053 0.24 0.107 0.32 0.213l11.307 11.28 11.28-11.28c0.080-0.107 0.213-0.16 0.32-0.213 0.133-0.053 0.267-0.080 0.4-0.080 0.107 0 0.24 0.027 0.373 0.080 0.107 0.053 0.24 0.107 0.32 0.213 0.107 0.080 0.16 0.213 0.213 0.32 0.053 0.133 0.080 0.267 0.080 0.4 0 0.107-0.027 0.24-0.080 0.373-0.053 0.107-0.107 0.24-0.213 0.32l-12 12c-0.080 0.107-0.213 0.16-0.32 0.213-0.133 0.053-0.267 0.080-0.373 0.080-0.133 0-0.267-0.027-0.4-0.080-0.107-0.053-0.24-0.107-0.32-0.213l-12-12c-0.107-0.080-0.16-0.213-0.213-0.32-0.053-0.133-0.080-0.267-0.080-0.373 0-0.133 0.027-0.267 0.080-0.4 0.053-0.107 0.107-0.24 0.213-0.32z"></path>
</symbol>
<symbol id="icon-arrow-clockwise" viewBox="0 0 32 32">
<path d="M16 6c-2.176 0-4.272 0.688-6 1.984s-2.992 3.12-3.6 5.2c-0.608 2.080-0.528 4.288 0.224 6.304 0.768 2.032 2.16 3.76 3.968 4.928 1.824 1.168 3.968 1.712 6.128 1.552s4.208-1.008 5.84-2.432c1.632-1.408 2.752-3.328 3.216-5.44 0.448-2.112 0.208-4.304-0.688-6.272-0.096-0.24-0.112-0.512-0.016-0.752s0.288-0.432 0.512-0.544c0.24-0.112 0.512-0.112 0.752-0.032s0.448 0.256 0.56 0.496c1.088 2.352 1.376 4.992 0.832 7.536-0.544 2.528-1.904 4.816-3.856 6.528-1.968 1.696-4.416 2.72-7.008 2.912-2.592 0.176-5.168-0.48-7.344-1.872-2.192-1.408-3.856-3.472-4.768-5.904s-1.008-5.088-0.272-7.568c0.72-2.496 2.24-4.688 4.32-6.24s4.592-2.384 7.2-2.384v2z"></path>
<path d="M16 8.928v-7.872c0-0.096 0.016-0.192 0.064-0.272 0.064-0.080 0.128-0.144 0.208-0.176 0.096-0.048 0.192-0.048 0.288-0.048 0.096 0.016 0.176 0.048 0.256 0.112l4.72 3.936c0.24 0.208 0.24 0.56 0 0.768l-4.72 3.936c-0.080 0.064-0.16 0.096-0.256 0.112-0.096 0-0.192 0-0.288-0.048-0.080-0.032-0.144-0.096-0.208-0.176-0.048-0.080-0.064-0.176-0.064-0.272z"></path>
</symbol>
<symbol id="icon-bell" viewBox="0 0 32 32">
<path d="M15.6 32c1.056 0 2.064-0.432 2.816-1.184s1.184-1.76 1.184-2.816h-8c0 1.056 0.416 2.064 1.168 2.816s1.76 1.184 2.832 1.184zM15.6 3.824l-1.6 0.32c-1.808 0.384-3.44 1.36-4.608 2.784s-1.792 3.216-1.792 5.072c0 1.248-0.272 4.384-0.928 7.472-0.32 1.536-0.752 3.136-1.328 4.528h20.496c-0.576-1.392-1.008-2.992-1.328-4.528-0.656-3.088-0.912-6.224-0.912-7.472-0.016-1.856-0.64-3.632-1.808-5.072-1.168-1.424-2.8-2.4-4.608-2.768l-1.584-0.336zM28.032 24c0.448 0.88 0.96 1.6 1.568 2h-28c0.592-0.4 1.104-1.12 1.552-2 1.808-3.6 2.448-10.24 2.448-12 0-4.848 3.424-8.88 8-9.808-0.032-0.272 0-0.56 0.096-0.832 0.080-0.256 0.224-0.496 0.416-0.704s0.416-0.384 0.672-0.496c0.256-0.112 0.528-0.16 0.816-0.16 0.272 0 0.544 0.048 0.8 0.16s0.48 0.288 0.672 0.496c0.192 0.208 0.336 0.448 0.416 0.704 0.096 0.272 0.128 0.56 0.096 0.832 2.256 0.464 4.288 1.68 5.744 3.472 1.472 1.792 2.256 4.016 2.272 6.336 0 1.76 0.624 8.4 2.432 12z"></path>
</symbol>
<symbol id="icon-boosters" viewBox="0 0 32 32">
<path d="M16.634 10.197l6.222 3.938-1.157 0.843-5.754-3.637-5.692 3.637-1.151-0.849 6.154-3.926c0.203-0.135 0.443-0.203 0.689-0.203 0.246-0.006 0.486 0.068 0.689 0.197z"></path>
<path d="M4.554 13.938l10.628 7.809c0.462 0.332 1.071 0.332 1.526 0l10.726-7.803c0.782-0.572 0.745-1.778-0.068-2.289l-10.732-6.794c-0.203-0.129-0.443-0.197-0.689-0.197s-0.486 0.068-0.689 0.203l-10.634 6.794c-0.8 0.511-0.843 1.711-0.068 2.277zM5.342 12.782l10.603-6.775 10.714 6.782c0 0.006 0.006 0.018 0.006 0.031s0 0.025-0.006 0.037c0 0 0 0.006 0 0.006h-0.006l-10.708 7.791-10.603-7.791c0 0 0 0-0.006 0v-0.006c-0.006-0.012-0.006-0.025-0.006-0.037s0.006-0.025 0.006-0.031l0.006-0.006z"></path>
<path d="M5.489 16.437l1.151 0.849-1.298 0.831c0 0 0 0 0 0h-0.006c0 0.012-0.006 0.025-0.006 0.037s0 0.025 0.006 0.037c0 0 0 0 0 0l0.006 0.006 10.603 7.791 10.714-7.797c0.006-0.012 0.006-0.025 0.006-0.037s-0.006-0.025-0.006-0.037h-0.006l-1.323-0.837 1.163-0.843 0.874 0.554c0.812 0.511 0.849 1.717 0.068 2.283l-10.726 7.809c-0.455 0.332-1.065 0.332-1.526-0.006l-10.628-7.803c-0.775-0.566-0.732-1.766 0.068-2.283l0.868-0.554z"></path>
</symbol>
<symbol id="icon-burger" viewBox="0 0 32 32">
<path d="M4 25c0-0.267 0.093-0.52 0.28-0.72 0.2-0.187 0.453-0.28 0.72-0.28h22c0.253 0 0.507 0.093 0.707 0.28 0.187 0.2 0.293 0.453 0.293 0.72 0 0.253-0.107 0.507-0.293 0.707-0.2 0.187-0.453 0.293-0.707 0.293h-22c-0.267 0-0.52-0.107-0.72-0.293-0.187-0.2-0.28-0.453-0.28-0.707zM4 19c0-0.267 0.093-0.52 0.28-0.72 0.2-0.187 0.453-0.28 0.72-0.28h22c0.253 0 0.507 0.093 0.707 0.28 0.187 0.2 0.293 0.453 0.293 0.72 0 0.253-0.107 0.507-0.293 0.707-0.2 0.187-0.453 0.293-0.707 0.293h-22c-0.267 0-0.52-0.107-0.72-0.293-0.187-0.2-0.28-0.453-0.28-0.707zM4 13c0-0.267 0.093-0.52 0.28-0.72 0.2-0.187 0.453-0.28 0.72-0.28h22c0.253 0 0.507 0.093 0.707 0.28 0.187 0.2 0.293 0.453 0.293 0.72 0 0.253-0.107 0.507-0.293 0.707-0.2 0.187-0.453 0.293-0.707 0.293h-22c-0.267 0-0.52-0.107-0.72-0.293-0.187-0.2-0.28-0.453-0.28-0.707zM4 7c0-0.267 0.093-0.52 0.28-0.72 0.2-0.187 0.453-0.28 0.72-0.28h22c0.253 0 0.507 0.093 0.707 0.28 0.187 0.2 0.293 0.453 0.293 0.72 0 0.253-0.107 0.507-0.293 0.707-0.2 0.187-0.453 0.293-0.707 0.293h-22c-0.267 0-0.52-0.107-0.72-0.293-0.187-0.2-0.28-0.453-0.28-0.707z"></path>
</symbol>
<symbol id="icon-calendar" viewBox="0 0 32 32">
<path d="M6.992 0c0.272 0 0.512 0.096 0.704 0.288s0.304 0.432 0.304 0.704v1.008h16v-1.008c0-0.272 0.096-0.512 0.288-0.704s0.432-0.288 0.704-0.288c0.272 0 0.512 0.096 0.704 0.288s0.304 0.432 0.304 0.704v1.008h2c1.056 0 2.064 0.416 2.816 1.168s1.184 1.76 1.184 2.832v22c0 1.056-0.432 2.064-1.184 2.816s-1.76 1.184-2.816 1.184h-24c-1.072 0-2.080-0.432-2.832-1.184s-1.168-1.76-1.168-2.816v-22c0-1.072 0.416-2.080 1.168-2.832s1.76-1.168 2.832-1.168h2v-1.008c0-0.272 0.096-0.512 0.288-0.704s0.432-0.288 0.704-0.288zM4 4c-0.544 0-1.040 0.208-1.424 0.576-0.368 0.384-0.576 0.88-0.576 1.424v2h28v-2c0-0.544-0.224-1.040-0.592-1.424-0.384-0.368-0.88-0.576-1.408-0.576h-24zM30 10h-28v18c0 0.528 0.208 1.024 0.576 1.408 0.384 0.368 0.88 0.592 1.424 0.592h24c0.528 0 1.024-0.224 1.408-0.592 0.368-0.384 0.592-0.88 0.592-1.408v-18z"></path>
<path d="M18 14.992c0-0.272 0.096-0.512 0.288-0.704s0.432-0.288 0.704-0.288h11.008v4h-11.008c-0.272 0-0.512-0.112-0.704-0.304s-0.288-0.432-0.288-0.704v-2zM14 20.992v2c0 0.272-0.112 0.512-0.304 0.704s-0.432 0.304-0.704 0.304h-10.992v-4h10.992c0.272 0 0.512 0.096 0.704 0.288s0.304 0.432 0.304 0.704z"></path>
</symbol>
<symbol id="icon-carters" viewBox="0 0 32 32">
<path d="M15.994 5.815c-1.846 2.978-5.908 7.846-9.372 10.283v3.305c3.323-2.431 6.572-5.785 8.788-9.108l0.591-0.886 0.585 0.886c2.209 3.311 5.502 6.646 8.788 9.095v-3.292c-3.526-2.431-7.538-7.305-9.378-10.283zM15.994 12.591c-1.846 2.978-5.908 7.846-9.372 10.283v3.305c3.323-2.431 6.572-5.785 8.788-9.108l0.591-0.886 0.585 0.886c2.209 3.311 5.502 6.646 8.788 9.095v-3.292c-3.526-2.431-7.538-7.305-9.378-10.283v0z"></path>
</symbol>
<symbol id="icon-close" viewBox="0 0 32 32">
<path d="M4.288 5.696c-0.096-0.096-0.176-0.192-0.224-0.32s-0.080-0.256-0.080-0.384c0-0.128 0.032-0.256 0.080-0.384s0.128-0.224 0.224-0.32c0.096-0.096 0.192-0.176 0.32-0.224s0.256-0.080 0.384-0.080c0.128 0 0.256 0.032 0.384 0.080s0.224 0.128 0.32 0.224l10.304 10.288 10.288-10.288c0.096-0.096 0.192-0.176 0.32-0.224s0.256-0.080 0.384-0.080c0.128 0 0.256 0.032 0.384 0.080s0.224 0.128 0.32 0.224c0.096 0.096 0.176 0.192 0.224 0.32s0.080 0.256 0.080 0.384c0 0.128-0.032 0.256-0.080 0.384s-0.128 0.224-0.224 0.32l-10.288 10.304 10.288 10.288c0.096 0.096 0.176 0.192 0.224 0.32s0.080 0.256 0.080 0.384c0 0.128-0.032 0.256-0.080 0.384s-0.128 0.224-0.224 0.32c-0.096 0.096-0.192 0.176-0.32 0.224s-0.256 0.080-0.384 0.080c-0.128 0-0.256-0.032-0.384-0.080s-0.224-0.128-0.32-0.224l-10.288-10.288-10.304 10.288c-0.096 0.096-0.192 0.176-0.32 0.224s-0.256 0.080-0.384 0.080c-0.128 0-0.256-0.032-0.384-0.080s-0.224-0.128-0.32-0.224c-0.096-0.096-0.176-0.192-0.224-0.32s-0.080-0.256-0.080-0.384c0-0.128 0.032-0.256 0.080-0.384s0.128-0.224 0.224-0.32l10.288-10.288-10.288-10.304z"></path>
</symbol>
<symbol id="icon-coin" viewBox="0 0 32 32">
<path d="M10.992 19.008c0.144 1.92 1.664 3.408 4.368 3.584v1.408h1.2v-1.424c2.8-0.192 4.432-1.696 4.432-3.872 0-1.968-1.248-2.992-3.488-3.52l-0.944-0.224v-3.824c1.2 0.128 1.968 0.784 2.144 1.696h2.112c-0.16-1.84-1.744-3.28-4.256-3.424v-1.408h-1.2v1.424c-2.4 0.24-4.016 1.68-4.016 3.712 0 1.792 1.2 2.944 3.216 3.408l0.8 0.208v4.064c-1.232-0.192-2.048-0.864-2.24-1.808h-2.128zM15.344 14.688c-1.184-0.272-1.824-0.832-1.824-1.68 0-0.944 0.688-1.648 1.84-1.856v3.536h-0.016zM16.736 17.072c1.424 0.336 2.096 0.864 2.096 1.824 0 1.072-0.832 1.824-2.272 1.952v-3.824l0.176 0.048z"></path>
<path d="M16 30c-3.728 0-7.28-1.488-9.904-4.112s-4.096-6.176-4.096-9.888c0-3.728 1.472-7.28 4.096-9.904s6.176-4.096 9.904-4.096c3.712 0 7.264 1.472 9.888 4.096s4.112 6.176 4.112 9.904c0 3.712-1.488 7.264-4.112 9.888s-6.176 4.112-9.888 4.112zM16 32c4.24 0 8.304-1.696 11.312-4.688 2.992-3.008 4.688-7.072 4.688-11.312 0-4.256-1.696-8.32-4.688-11.328-3.008-2.992-7.072-4.672-11.312-4.672-4.256 0-8.32 1.68-11.328 4.672-2.992 3.008-4.672 7.072-4.672 11.328 0 4.24 1.68 8.304 4.672 11.312 3.008 2.992 7.072 4.688 11.328 4.688z"></path>
<path d="M16 26.992c-2.928 0-5.728-1.152-7.792-3.216s-3.216-4.864-3.216-7.776c0-2.928 1.152-5.728 3.216-7.792s4.864-3.216 7.792-3.216c2.912 0 5.712 1.152 7.776 3.216s3.216 4.864 3.216 7.792c0 2.912-1.152 5.712-3.216 7.776s-4.864 3.216-7.776 3.216zM16 28c1.568 0 3.136-0.32 4.592-0.928 1.456-0.592 2.768-1.488 3.888-2.592 1.104-1.12 2-2.432 2.592-3.888 0.608-1.456 0.928-3.024 0.928-4.592 0-1.584-0.32-3.152-0.928-4.608-0.592-1.456-1.488-2.768-2.592-3.888-1.12-1.104-2.432-2-3.888-2.592-1.456-0.608-3.024-0.912-4.592-0.912-3.184 0-6.24 1.264-8.496 3.504-2.24 2.256-3.504 5.312-3.504 8.496 0 3.168 1.264 6.224 3.504 8.48 2.256 2.24 5.312 3.52 8.496 3.52z"></path>
</symbol>
<symbol id="icon-companies" viewBox="0 0 32 32">
<path d="M12.992 2c-0.8 0-1.552 0.304-2.128 0.864-0.56 0.576-0.864 1.328-0.864 2.128v1.008h-7.008c-0.8 0-1.552 0.304-2.128 0.864-0.56 0.576-0.864 1.328-0.864 2.128v16c0 0.8 0.304 1.552 0.864 2.128 0.576 0.56 1.328 0.88 2.128 0.88h26c0.8 0 1.552-0.32 2.128-0.88 0.56-0.576 0.88-1.328 0.88-2.128v-16c0-0.8-0.32-1.552-0.88-2.128-0.576-0.56-1.328-0.864-2.128-0.864h-6.992v-1.008c0-0.8-0.32-1.552-0.88-2.128-0.576-0.56-1.328-0.864-2.128-0.864h-6zM12.992 4h6c0.272 0 0.512 0.096 0.704 0.288s0.304 0.432 0.304 0.704v1.008h-8v-1.008c0-0.272 0.096-0.512 0.288-0.704s0.432-0.288 0.704-0.288zM16.768 17.824l13.232-3.536v10.704c0 0.272-0.112 0.512-0.304 0.704s-0.432 0.304-0.704 0.304h-26c-0.272 0-0.512-0.112-0.704-0.304s-0.288-0.432-0.288-0.704v-10.704l13.216 3.536c0.512 0.128 1.040 0.128 1.552 0zM2.992 8h26c0.272 0 0.512 0.096 0.704 0.288s0.304 0.432 0.304 0.704v3.232l-13.744 3.664c-0.176 0.048-0.352 0.048-0.528 0l-13.728-3.664v-3.232c0-0.272 0.096-0.512 0.288-0.704s0.432-0.288 0.704-0.288z"></path>
</symbol>
<symbol id="icon-contact" viewBox="0 0 32 32">
<path d="M12 16c1.584 0 3.104-0.64 4.24-1.76 1.12-1.136 1.76-2.656 1.76-4.24 0-1.6-0.64-3.12-1.76-4.256-1.136-1.12-2.656-1.744-4.24-1.744-1.6 0-3.12 0.624-4.256 1.744-1.12 1.136-1.744 2.656-1.744 4.256 0 1.584 0.624 3.104 1.744 4.24 1.136 1.12 2.656 1.76 4.256 1.76zM16 10c0 1.056-0.432 2.064-1.184 2.816s-1.76 1.184-2.816 1.184c-1.072 0-2.080-0.432-2.832-1.184s-1.168-1.76-1.168-2.816c0-1.072 0.416-2.080 1.168-2.832s1.76-1.168 2.832-1.168c1.056 0 2.064 0.416 2.816 1.168s1.184 1.76 1.184 2.832zM24 26c0 2-2 2-2 2h-20c0 0-2 0-2-2s2-8 12-8c10 0 12 6 12 8zM22 25.984c-0.016-0.496-0.32-1.968-1.664-3.328-1.312-1.296-3.76-2.656-8.336-2.656-4.592 0-7.040 1.36-8.336 2.656-1.36 1.36-1.664 2.832-1.664 3.328h20z"></path>
<path d="M26.992 10c0.272 0 0.512 0.096 0.704 0.288s0.304 0.432 0.304 0.704v3.008h2.992c0.272 0 0.512 0.096 0.704 0.288s0.304 0.432 0.304 0.704c0 0.272-0.112 0.512-0.304 0.704s-0.432 0.304-0.704 0.304h-2.992v2.992c0 0.272-0.112 0.512-0.304 0.704s-0.432 0.304-0.704 0.304c-0.272 0-0.512-0.112-0.704-0.304s-0.288-0.432-0.288-0.704v-2.992h-3.008c-0.272 0-0.512-0.112-0.704-0.304s-0.288-0.432-0.288-0.704c0-0.272 0.096-0.512 0.288-0.704s0.432-0.288 0.704-0.288h3.008v-3.008c0-0.272 0.096-0.512 0.288-0.704s0.432-0.288 0.704-0.288z"></path>
</symbol>
<symbol id="icon-crystall" viewBox="0 0 32 32">
<path stroke-linejoin="round" stroke-linecap="round" stroke-miterlimit="4" stroke-width="0.6154" d="M28.185 12.185l-12.185 15.243-12.191-15.243 4.585-6.092h15.225l4.566 6.092zM3.809 12.185h24.375M11.428 12.185l4.572 15.243M20.566 12.185l-4.566 15.243"></path>
<path stroke-linejoin="round" stroke-linecap="round" stroke-miterlimit="4" stroke-width="0.6154" d="M8.394 6.092l3.034 6.092 4.572-6.092 4.566 6.092 3.052-6.092"></path>
</symbol>
<symbol id="icon-document" viewBox="0 0 32 32">
<path d="M21.696 14.288c0.096 0.096 0.176 0.192 0.224 0.32s0.080 0.256 0.080 0.384c0 0.128-0.032 0.256-0.080 0.384s-0.128 0.224-0.224 0.32l-6 6c-0.096 0.096-0.192 0.176-0.32 0.224s-0.256 0.080-0.384 0.080c-0.128 0-0.256-0.032-0.384-0.080s-0.224-0.128-0.32-0.224l-3.008-2.992c-0.096-0.096-0.16-0.208-0.208-0.336-0.048-0.112-0.080-0.24-0.080-0.368 0-0.144 0.032-0.272 0.080-0.384 0.048-0.128 0.112-0.24 0.208-0.336 0.192-0.176 0.448-0.288 0.72-0.288 0.128 0 0.256 0.032 0.368 0.080 0.128 0.048 0.24 0.112 0.336 0.208l2.288 2.304 5.296-5.296c0.096-0.096 0.192-0.176 0.32-0.224s0.256-0.080 0.384-0.080c0.128 0 0.256 0.032 0.384 0.080s0.224 0.128 0.32 0.224z"></path>
<path d="M8 2.992h-2c-1.072 0-2.080 0.416-2.832 1.168s-1.168 1.776-1.168 2.832v21.008c0 1.056 0.416 2.064 1.168 2.816s1.76 1.184 2.832 1.184h20c1.056 0 2.064-0.432 2.816-1.184s1.184-1.76 1.184-2.816v-21.008c0-1.056-0.432-2.080-1.184-2.832s-1.76-1.168-2.816-1.168h-2v2h2c0.528 0 1.024 0.208 1.408 0.592 0.368 0.368 0.592 0.88 0.592 1.408v21.008c0 0.528-0.224 1.024-0.592 1.408-0.384 0.368-0.88 0.592-1.408 0.592h-20c-0.544 0-1.040-0.224-1.424-0.592-0.368-0.384-0.576-0.88-0.576-1.408v-21.008c0-0.528 0.208-1.040 0.576-1.408 0.384-0.384 0.88-0.592 1.424-0.592h2v-2z"></path>
<path d="M18.992 2c0.272 0 0.512 0.096 0.704 0.288s0.304 0.432 0.304 0.704v2c0 0.272-0.112 0.512-0.304 0.704s-0.432 0.304-0.704 0.304h-6c-0.272 0-0.512-0.112-0.704-0.304s-0.288-0.432-0.288-0.704v-2c0-0.272 0.096-0.512 0.288-0.704s0.432-0.288 0.704-0.288h6zM12.992 0c-0.8 0-1.552 0.304-2.128 0.864-0.56 0.576-0.864 1.328-0.864 2.128v2c0 0.8 0.304 1.552 0.864 2.128 0.576 0.56 1.328 0.88 2.128 0.88h6c0.8 0 1.552-0.32 2.128-0.88 0.56-0.576 0.88-1.328 0.88-2.128v-2c0-0.8-0.32-1.552-0.88-2.128-0.576-0.56-1.328-0.864-2.128-0.864h-6z"></path>
</symbol>
<symbol id="icon-location" viewBox="0 0 32 32">
<path d="M16 32c0 0 12-11.376 12-20 0-3.184-1.28-6.24-3.52-8.496-2.256-2.24-5.312-3.504-8.48-3.504-3.184 0-6.24 1.264-8.496 3.504-2.24 2.256-3.504 5.312-3.504 8.496 0 8.624 12 20 12 20zM16 18c-1.6 0-3.12-0.64-4.256-1.76-1.12-1.136-1.744-2.656-1.744-4.24 0-1.6 0.624-3.12 1.744-4.256 1.136-1.12 2.656-1.744 4.256-1.744 1.584 0 3.104 0.624 4.24 1.744 1.12 1.136 1.76 2.656 1.76 4.256 0 1.584-0.64 3.104-1.76 4.24-1.136 1.12-2.656 1.76-4.24 1.76z"></path>
</symbol>
<symbol id="icon-logo-sass" viewBox="0 0 32 32">
<path d="M31.982 20.498c-0.092-0.745-0.468-1.391-1.126-1.92-0.006-0.012-0.012-0.018-0.025-0.031l-0.031-0.018-0.012-0.012-0.351-0.246-0.012-0.012-0.043-0.031c-0.012-0.006-0.031-0.012-0.049-0.018-1.102-0.658-2.923-1.114-5.717-0.129-0.665-1.126-0.738-2.018-0.295-3.397 0.080-0.24 0.006-0.394-0.228-0.498-0.48-0.203-1.132-0.098-1.6 0.025-0.215 0.055-0.345 0.178-0.388 0.363-0.289 1.372-1.145 2.634-1.969 3.846l-0.049 0.068c-0.511-1.077-0.406-1.914-0.049-2.96 0.068-0.209 0.012-0.351-0.178-0.449-0.548-0.283-1.366-0.092-1.692 0.006-0.418 0.123-0.862 1.237-1.354 2.578-0.123 0.338-0.234 0.622-0.295 0.757-0.154 0.314-0.302 0.671-0.455 1.046-0.351 0.855-0.745 1.822-1.311 2.425-0.203-0.449 0.117-1.169 0.431-1.858 0.369-0.818 0.72-1.594 0.32-2.092-0.068-0.074-0.142-0.142-0.234-0.185-0.092-0.049-0.191-0.074-0.289-0.080-0.129-0.012-0.265 0.006-0.382 0.062 0.043-0.357 0.043-0.634-0.062-0.972-0.148-0.48-0.529-0.751-1.058-0.732-1.2 0.031-2.215 0.929-2.862 1.674-0.425 0.498-1.372 0.88-2.203 1.218-0.332 0.135-0.64 0.258-0.905 0.388-0.412-0.351-0.942-0.708-1.495-1.083-1.563-1.046-3.335-2.234-3.397-3.846-0.086-2.382 2.628-4.074 4.991-5.28 1.797-0.911 3.354-1.52 4.769-1.846 1.988-0.468 3.668-0.369 4.991 0.277 0.726 0.351 1.065 1.126 0.849 1.914-0.566 2.062-2.898 3.471-4.886 4.111-1.206 0.382-2.228 0.542-3.126 0.486-1.132-0.062-2.055-0.634-2.449-0.874-0.068-0.043-0.129-0.080-0.203-0.111l-0.018-0.006c-0.037-0.006-0.074-0.006-0.105 0.006-0.037 0.006-0.068 0.031-0.092 0.055-0.080 0.098-0.055 0.252-0.025 0.326 0.388 1.009 1.182 1.643 2.357 1.889 0.388 0.074 0.782 0.111 1.175 0.111 2.763 0 6.289-1.594 7.582-2.905 0.886-0.892 1.526-1.815 1.797-3.397 0.277-1.662-0.849-2.812-1.994-3.342-2.788-1.286-5.951-0.782-8.117-0.129-2.529 0.763-5.145 2.154-7.182 3.809-2.505 2.043-3.415 3.938-2.695 5.643 0.738 1.742 2.542 2.837 4.277 3.889 0.566 0.345 1.102 0.671 1.582 1.003-0.142 0.068-0.289 0.142-0.443 0.215-1.458 0.708-3.12 1.502-4.037 2.818-0.671 0.96-0.794 1.914-0.369 2.843 0.222 0.492 0.622 0.825 1.175 0.991 0.289 0.080 0.591 0.123 0.892 0.117 1.083 0 2.271-0.437 2.917-0.843 1.145-0.72 1.889-1.68 2.209-2.868 0.283-1.052 0.215-2.098-0.197-3.034l1.403-0.708c-0.677 2.252-0.16 3.594 0.412 4.332 0.209 0.277 0.585 0.443 1.009 0.449s0.812-0.154 1.034-0.425c0.418-0.517 0.726-1.12 1.009-1.723-0.018 0.394 0 0.794 0.135 1.132 0.123 0.302 0.32 0.505 0.578 0.585 0.271 0.080 0.591 0.012 0.898-0.197 1.385-0.948 2.332-3.225 3.095-5.052 0.105-0.265 0.209-0.511 0.308-0.745 0.191 0.671 0.449 1.323 0.782 1.938 0.074 0.135 0.068 0.197-0.031 0.302-0.148 0.166-0.363 0.369-0.585 0.578-0.671 0.64-1.514 1.44-1.625 2.142-0.043 0.277 0.154 0.535 0.449 0.591 0.905 0.185 1.994-0.080 2.917-0.702 0.837-0.56 1.151-1.348 0.935-2.326-0.203-0.935 0.271-2.105 1.415-3.471 0.185 0.782 0.437 1.415 0.782 1.969l-0.012 0.006c-0.831 0.726-1.975 1.723-1.797 2.935 0.018 0.117 0.055 0.228 0.117 0.326 0.055 0.098 0.135 0.185 0.234 0.252s0.215 0.111 0.338 0.135c0.117 0.018 0.24 0.018 0.363-0.012 1.089-0.228 1.914-0.689 2.511-1.409s0.375-1.514 0.178-2.135c1.563-0.425 2.954-0.412 4.252 0.031 0.732 0.252 1.255 0.665 1.557 1.231 0.382 0.714 0.178 1.372-0.578 1.852-0.234 0.148-0.345 0.24-0.351 0.351 0 0.031 0.006 0.055 0.012 0.080 0.012 0.025 0.031 0.043 0.049 0.062 0.092 0.074 0.357 0.197 0.972-0.191 0.56-0.351 0.892-0.831 0.972-1.434 0.018-0.166 0.018-0.332 0-0.505zM6.997 22.068l-0.006 0.080c-0.092 0.917-0.56 1.711-1.378 2.375-0.517 0.418-1.077 0.671-1.582 0.72-0.351 0.037-0.603-0.012-0.757-0.142-0.111-0.098-0.172-0.24-0.185-0.437-0.105-1.594 2.394-3.175 3.797-3.698 0.105 0.357 0.142 0.732 0.111 1.102zM13.397 17.575c-0.234 1.317-0.905 3.809-1.963 4.775-0.055 0.043-0.098 0.062-0.117 0.055s-0.031-0.025-0.049-0.062c-0.351-0.818-0.222-2.203 0.314-3.292 0.412-0.843 0.997-1.397 1.655-1.563 0.031-0.006 0.055-0.012 0.086-0.012 0.018 0 0.043 0.006 0.062 0.018 0.006 0.012 0.012 0.025 0.012 0.037 0.006 0.018 0.006 0.031 0 0.043zM18.615 22.382c-0.197 0.209-0.474 0.178-0.406 0.105l1.015-1.077c-0.086 0.369-0.326 0.677-0.609 0.972zM22.825 21.452c-0.098 0.043-0.197 0.074-0.308 0.086-0.031-0.566 0.523-1.206 1.065-1.631 0.142 0.591-0.154 1.212-0.757 1.545z"></path>
</symbol>
<symbol id="icon-message" viewBox="0 0 32 32">
<path d="M0 8c0-1.072 0.416-2.080 1.168-2.832s1.76-1.168 2.832-1.168h24c1.056 0 2.064 0.416 2.816 1.168s1.184 1.76 1.184 2.832v16c0 1.056-0.432 2.064-1.184 2.816s-1.76 1.184-2.816 1.184h-24c-1.072 0-2.080-0.432-2.832-1.184s-1.168-1.76-1.168-2.816v-16zM4 6c-0.544 0-1.040 0.208-1.424 0.576-0.368 0.384-0.576 0.88-0.576 1.424v0.432l14 8.4 14-8.4v-0.432c0-0.544-0.224-1.040-0.592-1.424-0.384-0.368-0.88-0.576-1.408-0.576h-24zM30 10.752l-9.424 5.664 9.424 5.792v-11.456zM29.92 24.512l-11.28-6.944-2.64 1.584-2.656-1.584-11.28 6.944c0.112 0.416 0.368 0.8 0.704 1.072 0.352 0.256 0.784 0.416 1.232 0.416h24c0.432 0 0.864-0.16 1.216-0.416 0.336-0.272 0.592-0.656 0.704-1.072zM2 22.208l9.408-5.792-9.408-5.664v11.456z"></path>
</symbol>
<symbol id="icon-overview" viewBox="0 0 32 32">
<path d="M12 2v6h-10v-6h10zM2 0c-0.544 0-1.040 0.208-1.424 0.576-0.368 0.384-0.576 0.88-0.576 1.424v6c0 0.528 0.208 1.024 0.576 1.408 0.384 0.368 0.88 0.592 1.424 0.592h10c0.528 0 1.024-0.224 1.408-0.592 0.368-0.384 0.592-0.88 0.592-1.408v-6c0-0.544-0.224-1.040-0.592-1.424-0.384-0.368-0.88-0.576-1.408-0.576h-10zM30 24v6h-10v-6h10zM20 22c-0.544 0-1.040 0.208-1.424 0.576-0.368 0.384-0.576 0.88-0.576 1.424v6c0 0.528 0.208 1.024 0.576 1.408 0.384 0.368 0.88 0.592 1.424 0.592h10c0.528 0 1.024-0.224 1.408-0.592 0.368-0.384 0.592-0.88 0.592-1.408v-6c0-0.544-0.224-1.040-0.592-1.424-0.384-0.368-0.88-0.576-1.408-0.576h-10zM12 16v14h-10v-14h10zM2 14c-0.544 0-1.040 0.208-1.424 0.576-0.368 0.384-0.576 0.88-0.576 1.424v14c0 0.528 0.208 1.024 0.576 1.408 0.384 0.368 0.88 0.592 1.424 0.592h10c0.528 0 1.024-0.224 1.408-0.592 0.368-0.384 0.592-0.88 0.592-1.408v-14c0-0.544-0.224-1.040-0.592-1.424-0.384-0.368-0.88-0.576-1.408-0.576h-10zM30 2v14h-10v-14h10zM20 0c-0.544 0-1.040 0.208-1.424 0.576-0.368 0.384-0.576 0.88-0.576 1.424v14c0 0.528 0.208 1.024 0.576 1.408 0.384 0.368 0.88 0.592 1.424 0.592h10c0.528 0 1.024-0.224 1.408-0.592 0.368-0.384 0.592-0.88 0.592-1.408v-14c0-0.544-0.224-1.040-0.592-1.424-0.384-0.368-0.88-0.576-1.408-0.576h-10z"></path>
</symbol>
<symbol id="icon-plus" viewBox="0 0 32 32">
<path d="M16 8c0.26 0 0.5 0.1 0.7 0.28 0.18 0.2 0.3 0.44 0.3 0.72v6h6c0.26 0 0.5 0.1 0.7 0.28 0.18 0.2 0.3 0.44 0.3 0.72 0 0.26-0.12 0.5-0.3 0.7-0.2 0.18-0.44 0.3-0.7 0.3h-6v6c0 0.26-0.12 0.5-0.3 0.7-0.2 0.18-0.44 0.3-0.7 0.3-0.28 0-0.52-0.12-0.72-0.3-0.18-0.2-0.28-0.44-0.28-0.7v-6h-6c-0.28 0-0.52-0.12-0.72-0.3-0.18-0.2-0.28-0.44-0.28-0.7 0-0.28 0.1-0.52 0.28-0.72 0.2-0.18 0.44-0.28 0.72-0.28h6v-6c0-0.28 0.1-0.52 0.28-0.72 0.2-0.18 0.44-0.28 0.72-0.28z"></path>
</symbol>
<symbol id="icon-minus" viewBox="0 0 32 32">
<path d="M8 16c0-0.28 0.1-0.52 0.28-0.72 0.2-0.18 0.44-0.28 0.72-0.28h14c0.26 0 0.5 0.1 0.7 0.28 0.18 0.2 0.3 0.44 0.3 0.72 0 0.26-0.12 0.5-0.3 0.7-0.2 0.18-0.44 0.3-0.7 0.3h-14c-0.28 0-0.52-0.12-0.72-0.3-0.18-0.2-0.28-0.44-0.28-0.7z"></path>
</symbol>
<symbol id="icon-checkbox" viewBox="0 0 32 32">
<path stroke-linejoin="miter" stroke-linecap="butt" stroke-miterlimit="4" stroke-width="1.6" d="M6.4 0.8h19.2c3.093 0 5.6 2.507 5.6 5.6v19.2c0 3.093-2.507 5.6-5.6 5.6h-19.2c-3.093 0-5.6-2.507-5.6-5.6v-19.2c0-3.093 2.507-5.6 5.6-5.6z"></path>
</symbol>
<symbol id="icon-report" viewBox="0 0 32 32">
<path d="M10 20.992c0-0.272 0.096-0.512 0.288-0.704s0.432-0.288 0.704-0.288h4c0.272 0 0.512 0.096 0.704 0.288s0.304 0.432 0.304 0.704c0 0.272-0.112 0.512-0.304 0.704s-0.432 0.304-0.704 0.304h-4c-0.272 0-0.512-0.112-0.704-0.304s-0.288-0.432-0.288-0.704zM10 16.992c0-0.272 0.096-0.512 0.288-0.704s0.432-0.288 0.704-0.288h10c0.272 0 0.512 0.096 0.704 0.288s0.304 0.432 0.304 0.704c0 0.272-0.112 0.512-0.304 0.704s-0.432 0.304-0.704 0.304h-10c-0.272 0-0.512-0.112-0.704-0.304s-0.288-0.432-0.288-0.704zM10 12.992c0-0.272 0.096-0.512 0.288-0.704s0.432-0.288 0.704-0.288h10c0.272 0 0.512 0.096 0.704 0.288s0.304 0.432 0.304 0.704c0 0.272-0.112 0.512-0.304 0.704s-0.432 0.304-0.704 0.304h-10c-0.272 0-0.512-0.112-0.704-0.304s-0.288-0.432-0.288-0.704zM10 8.992c0-0.272 0.096-0.512 0.288-0.704s0.432-0.288 0.704-0.288h10c0.272 0 0.512 0.096 0.704 0.288s0.304 0.432 0.304 0.704c0 0.272-0.112 0.512-0.304 0.704s-0.432 0.304-0.704 0.304h-10c-0.272 0-0.512-0.112-0.704-0.304s-0.288-0.432-0.288-0.704z"></path>
<path d="M6 0h20c1.056 0 2.064 0.416 2.816 1.168s1.184 1.76 1.184 2.832v24c0 1.056-0.432 2.064-1.184 2.816s-1.76 1.184-2.816 1.184h-20c-1.072 0-2.080-0.432-2.832-1.184s-1.168-1.76-1.168-2.816v-2h2v2c0 0.528 0.208 1.024 0.576 1.408 0.384 0.368 0.88 0.592 1.424 0.592h20c0.528 0 1.024-0.224 1.408-0.592 0.368-0.384 0.592-0.88 0.592-1.408v-24c0-0.544-0.224-1.040-0.592-1.424-0.384-0.368-0.88-0.576-1.408-0.576h-20c-0.544 0-1.040 0.208-1.424 0.576-0.368 0.384-0.576 0.88-0.576 1.424v2h-2v-2c0-1.072 0.416-2.080 1.168-2.832s1.76-1.168 2.832-1.168z"></path>
<path d="M2 10v-1.008c0-0.272 0.096-0.512 0.288-0.704s0.432-0.288 0.704-0.288c0.272 0 0.512 0.096 0.704 0.288s0.304 0.432 0.304 0.704v1.008h0.992c0.272 0 0.512 0.096 0.704 0.288s0.304 0.432 0.304 0.704c0 0.272-0.112 0.512-0.304 0.704s-0.432 0.304-0.704 0.304h-4c-0.272 0-0.512-0.112-0.704-0.304s-0.288-0.432-0.288-0.704c0-0.272 0.096-0.512 0.288-0.704s0.432-0.288 0.704-0.288h1.008zM2 16v-1.008c0-0.272 0.096-0.512 0.288-0.704s0.432-0.288 0.704-0.288c0.272 0 0.512 0.096 0.704 0.288s0.304 0.432 0.304 0.704v1.008h0.992c0.272 0 0.512 0.096 0.704 0.288s0.304 0.432 0.304 0.704c0 0.272-0.112 0.512-0.304 0.704s-0.432 0.304-0.704 0.304h-4c-0.272 0-0.512-0.112-0.704-0.304s-0.288-0.432-0.288-0.704c0-0.272 0.096-0.512 0.288-0.704s0.432-0.288 0.704-0.288h1.008zM2 22v-1.008c0-0.272 0.096-0.512 0.288-0.704s0.432-0.288 0.704-0.288c0.272 0 0.512 0.096 0.704 0.288s0.304 0.432 0.304 0.704v1.008h0.992c0.272 0 0.512 0.096 0.704 0.288s0.304 0.432 0.304 0.704c0 0.272-0.112 0.512-0.304 0.704s-0.432 0.304-0.704 0.304h-4c-0.272 0-0.512-0.112-0.704-0.304s-0.288-0.432-0.288-0.704c0-0.272 0.096-0.512 0.288-0.704s0.432-0.288 0.704-0.288h1.008z"></path>
</symbol>
<symbol id="icon-search" viewBox="0 0 32 32">
<path d="M23.472 20.688c1.936-2.656 2.8-5.92 2.432-9.184-0.368-3.248-1.968-6.24-4.448-8.384-2.496-2.128-5.696-3.248-8.96-3.12-3.28 0.128-6.384 1.488-8.704 3.808s-3.664 5.424-3.792 8.704c-0.128 3.264 0.992 6.464 3.12 8.96 2.144 2.48 5.136 4.064 8.384 4.432 3.264 0.384 6.544-0.496 9.184-2.432h-0.016c0.064 0.080 0.128 0.16 0.208 0.24l7.696 7.696c0.368 0.368 0.88 0.592 1.408 0.592 0.544 0 1.040-0.224 1.424-0.592 0.368-0.368 0.576-0.88 0.576-1.408 0-0.544-0.208-1.040-0.576-1.424l-7.696-7.696c-0.080-0.080-0.16-0.144-0.24-0.192zM24 12.992c0 1.44-0.288 2.88-0.848 4.208-0.544 1.344-1.36 2.544-2.384 3.568s-2.24 1.84-3.568 2.384c-1.328 0.56-2.768 0.848-4.208 0.848s-2.88-0.288-4.208-0.848c-1.344-0.544-2.544-1.36-3.568-2.384s-1.84-2.224-2.384-3.568c-0.56-1.328-0.832-2.768-0.832-4.208 0-2.912 1.152-5.712 3.216-7.776s4.864-3.216 7.776-3.216c2.912 0 5.712 1.152 7.776 3.216s3.232 4.864 3.232 7.776z"></path>
</symbol>
<symbol id="icon-setting" viewBox="0 0 32 32">
<path d="M16 9.504c-0.864 0-1.712 0.16-2.496 0.496-0.784 0.32-1.504 0.8-2.096 1.408-0.608 0.592-1.088 1.312-1.408 2.096-0.336 0.784-0.496 1.632-0.496 2.496 0 0.848 0.16 1.696 0.496 2.48 0.32 0.784 0.8 1.504 1.408 2.096 0.592 0.608 1.312 1.088 2.096 1.408 0.784 0.336 1.632 0.496 2.496 0.496 1.712 0 3.36-0.672 4.576-1.904 1.216-1.216 1.904-2.864 1.904-4.576 0-1.728-0.688-3.376-1.904-4.592s-2.864-1.904-4.576-1.904zM11.504 16c0-1.2 0.464-2.336 1.312-3.184s1.984-1.312 3.184-1.312c1.184 0 2.32 0.464 3.168 1.312s1.312 1.984 1.312 3.184c0 1.184-0.464 2.32-1.312 3.168s-1.984 1.312-3.168 1.312c-1.2 0-2.336-0.464-3.184-1.312s-1.312-1.984-1.312-3.168z"></path>
<path d="M19.584 2.672c-1.056-3.568-6.128-3.568-7.184 0l-0.192 0.64c-0.064 0.256-0.192 0.48-0.368 0.672s-0.4 0.352-0.64 0.448c-0.24 0.096-0.496 0.144-0.752 0.128-0.256 0-0.512-0.080-0.752-0.208l-0.576-0.32c-3.28-1.776-6.864 1.808-5.088 5.088l0.32 0.576c0.128 0.24 0.208 0.496 0.208 0.752 0.016 0.256-0.032 0.512-0.128 0.752s-0.256 0.464-0.448 0.64c-0.192 0.176-0.416 0.304-0.672 0.368l-0.64 0.192c-3.568 1.056-3.568 6.128 0 7.184l0.64 0.192c0.256 0.064 0.48 0.192 0.672 0.368s0.352 0.4 0.448 0.64c0.096 0.24 0.144 0.496 0.128 0.752 0 0.256-0.080 0.512-0.208 0.752l-0.32 0.576c-1.776 3.28 1.808 6.864 5.088 5.088l0.576-0.32c0.24-0.128 0.496-0.208 0.752-0.208 0.256-0.016 0.512 0.032 0.752 0.128s0.464 0.256 0.64 0.448c0.176 0.192 0.304 0.416 0.368 0.672l0.192 0.64c1.056 3.568 6.128 3.568 7.184 0l0.192-0.64c0.064-0.256 0.192-0.48 0.368-0.672s0.4-0.352 0.64-0.448c0.24-0.096 0.496-0.144 0.752-0.128 0.256 0 0.512 0.080 0.752 0.208l0.576 0.32c3.28 1.776 6.864-1.808 5.088-5.088l-0.32-0.576c-0.128-0.24-0.208-0.496-0.208-0.752-0.016-0.256 0.032-0.512 0.128-0.752s0.256-0.464 0.448-0.64c0.192-0.176 0.416-0.304 0.672-0.368l0.64-0.192c3.568-1.056 3.568-6.128 0-7.184l-0.64-0.192c-0.256-0.064-0.48-0.192-0.672-0.368s-0.352-0.4-0.448-0.64c-0.096-0.24-0.144-0.496-0.128-0.752 0-0.256 0.080-0.512 0.208-0.752l0.32-0.576c1.776-3.28-1.808-6.864-5.088-5.088l-0.576 0.32c-0.24 0.128-0.496 0.208-0.752 0.208-0.256 0.016-0.512-0.032-0.752-0.128s-0.464-0.256-0.64-0.448c-0.176-0.192-0.304-0.416-0.368-0.672l-0.192-0.64zM14.32 3.248c0.496-1.68 2.848-1.68 3.344 0l0.192 0.64c0.16 0.528 0.432 1.024 0.8 1.44 0.384 0.416 0.848 0.736 1.36 0.96 0.512 0.208 1.072 0.304 1.632 0.272s1.104-0.176 1.584-0.448l0.592-0.32c1.52-0.832 3.2 0.832 2.368 2.368l-0.32 0.592c-0.272 0.48-0.416 1.024-0.448 1.584s0.064 1.12 0.272 1.632c0.224 0.512 0.544 0.976 0.96 1.36 0.416 0.368 0.912 0.64 1.44 0.8l0.64 0.192c1.68 0.496 1.68 2.848 0 3.344l-0.64 0.192c-0.528 0.16-1.024 0.432-1.44 0.8-0.416 0.384-0.736 0.848-0.96 1.36-0.208 0.512-0.304 1.072-0.272 1.632s0.176 1.104 0.448 1.584l0.32 0.592c0.832 1.52-0.848 3.2-2.368 2.368l-0.592-0.32c-0.48-0.272-1.024-0.416-1.584-0.448s-1.12 0.064-1.632 0.272c-0.512 0.224-0.976 0.544-1.36 0.96-0.368 0.416-0.64 0.912-0.8 1.44l-0.192 0.64c-0.496 1.68-2.848 1.68-3.344 0l-0.192-0.64c-0.16-0.528-0.432-1.024-0.8-1.44-0.384-0.416-0.848-0.736-1.36-0.96-0.512-0.208-1.072-0.304-1.632-0.272s-1.104 0.176-1.584 0.448l-0.592 0.32c-1.52 0.832-3.2-0.848-2.368-2.368l0.32-0.592c0.272-0.48 0.416-1.024 0.448-1.584s-0.064-1.12-0.272-1.632c-0.224-0.528-0.544-0.976-0.96-1.36-0.416-0.368-0.912-0.64-1.44-0.8l-0.64-0.192c-1.68-0.496-1.68-2.864 0-3.344l0.64-0.192c0.528-0.16 1.024-0.432 1.44-0.8 0.416-0.384 0.736-0.848 0.96-1.36 0.208-0.512 0.304-1.072 0.272-1.632s-0.176-1.104-0.448-1.584l-0.32-0.592c-0.832-1.52 0.832-3.2 2.368-2.368l0.592 0.32c0.48 0.272 1.024 0.416 1.584 0.448s1.12-0.064 1.632-0.272c0.512-0.224 0.976-0.544 1.36-0.96 0.368-0.416 0.64-0.912 0.8-1.44l0.192-0.64z"></path>
</symbol>
<symbol id="icon-symphatico" viewBox="0 0 32 32">
<path d="M29.748 18.658c0 1.969-0.382 3.649-1.108 4.855-0.886 1.458-2.252 2.234-3.963 2.234-3.342 0-5.785-4.566-8.375-9.397-2.16-4.031-4.609-8.603-7.052-8.603-2.911 0-5.502 6.105-5.502 10.911 0 1.698 0.308 3.108 0.892 4.080 0.615 1.015 1.489 1.508 2.677 1.508 2.018 0 4.037-3.132 5.748-6.197 0.105-0.154 0.265-0.265 0.449-0.314 0.185-0.043 0.375-0.012 0.542 0.080s0.289 0.24 0.351 0.418c0.055 0.178 0.043 0.375-0.037 0.548-1.871 3.366-4.123 6.966-7.052 6.966-1.711 0-3.077-0.775-3.963-2.234-0.726-1.206-1.108-2.886-1.108-4.855 0-5.058 2.726-12.412 7.003-12.412 3.342 0 5.785 4.566 8.375 9.397 2.16 4.031 4.609 8.603 7.052 8.603 1.188 0 2.062-0.492 2.677-1.508 0.585-0.972 0.892-2.382 0.892-4.080 0-4.806-2.591-10.911-5.502-10.911-1.12 0-2.363 0.972-3.766 2.966-0.111 0.16-0.289 0.271-0.486 0.308-0.197 0.031-0.394-0.012-0.56-0.129-0.16-0.111-0.271-0.289-0.308-0.48-0.031-0.197 0.012-0.4 0.129-0.56 1.089-1.551 2.788-3.606 4.991-3.606 4.277 0 7.003 7.354 7.003 12.412z"></path>
</symbol>
<symbol id="icon-synergetic" viewBox="0 0 32 32">
<path stroke-linejoin="round" stroke-linecap="round" stroke-miterlimit="4" stroke-width="0.6154" d="M11.102 27.169c1.754-1.108 2.948-4.855 0.683-6.825l-5.274 7.735c-0.425 0.622-0.197 1.286 1.132 0.671l4.862-2.271 8.265-3.846c0.252-0.123 0.486-0.295 0.671-0.511 0.191-0.209 0.332-0.455 0.425-0.72 0.092-0.271 0.135-0.554 0.117-0.837s-0.086-0.56-0.209-0.812l-0.006-0.006-4.56-9.852c-0.548-1.126 0.326-2.905 1.926-4.209M20.892 4.825c-1.754 1.108-2.948 4.855-0.689 6.825l5.28-7.735c0.425-0.622 0.197-1.286-1.132-0.671l-4.862 2.271-8.265 3.846c-0.252 0.123-0.486 0.295-0.671 0.511-0.191 0.209-0.332 0.455-0.425 0.72-0.092 0.271-0.135 0.554-0.117 0.837 0.012 0.283 0.086 0.56 0.209 0.812l0.006 0.006 4.56 9.852c0.548 1.126-0.326 2.905-1.926 4.209"></path>
</symbol>
</defs>
</svg>
